<svg xmlns="http://www.w3.org/2000/svg" xmlns:xlink="http://www.w3.org/1999/xlink" version="1.0" x="0px" y="0px" viewBox="0 0 100 125" enable-background="new 0 0 100 100" xml:space="preserve"><path d="M76.6738052,42.3178902c2.0281982-3.6075363,3.1972198-7.7579422,3.1972198-12.1823788  c0-13.7632523-11.1975403-24.9608707-24.9606285-24.9608707S29.9498501,16.3722591,29.9498501,30.1355114  c0,5.83745,2.0295849,11.1989155,5.3988056,15.4558163c-2.7614174,1.1032677-5.6728363,1.9101028-8.727766,2.4084892  l-2.9247322,0.4772835l2.0790176,2.1107521c0.2724895,0.2766304,4.6326389,4.6280136,10.5629482,7.5975494  c-5.1190109,3.7689056-13.4591885,10.0346069-23.1075897,17.7714462l-1.4743795,1.1841125l5.7671566,11.0401535l1.4953213-0.0987091  c5.3330574-0.3532486,10.0584736-2.2208557,13.0252514-3.7085495L33.0810776,95h2.3096237h2.3110847l-1.8037682-18.4499969  l-3.2030678,2.161911c-0.0599022,0.0389633-5.6009998,3.75-12.5073013,4.6448212l-2.6044331-4.987793  c10.5883541-8.4449692,19.4194469-14.9878044,23.831953-18.2015038c1.6869621,0.4655952,3.4276619,0.7608032,5.1924706,0.7608032  c4.4934311,0,8.3491859-1.751461,11.5537949-5.1973038c1.4654503,0.4178619,3.086422,1.1075859,4.5308495,2.2452698  l0.285881,0.191452c2.005722,1.1406059,4.8466034,2.4246635,6.383812,0.3905334  c1.0552139-1.3951569,0.8680344-2.9429436-2.2736664-6.6579475c-0.4534988-0.5373497-0.9699097-1.1208153-1.5536804-1.7555695  c-0.5013962-0.5464363-1.0537567-1.1302223-1.6584778-1.7571831c-0.2154236-0.2230568-0.4400253-0.4522858-0.6690063-0.6870308  c0.4355621-0.9909248,0.8470917-2.0402985,1.2378464-3.1419449l3.7569733-3.5503922  c0.8531036,0.7048836,1.6540146,1.3873634,2.4248047,2.0568581c0.5986328,0.51754,1.1794052,1.0295639,1.7302246,1.5279503  c0.5867004,0.5315018,1.1391525,1.0461235,1.6750336,1.5536003C84.6936035,56.2499771,85.4390717,61.8257332,84.725174,64.4300003  c-1.140686,4.1611252-7.2938919,5.9182968-9.5647125,6.241684l-1.7855835,0.2772369L70.8902512,95h2.310997h2.3110046  l2.0776367-20.106842c3.2510376-0.8006668,9.8938599-3.1638412,11.5641861-9.2136383  C90.881546,59.4300499,86.7771606,51.7343025,76.6738052,42.3178902z M46.6076393,57.8620186  c-0.6091042,0-1.2169075-0.0522728-1.8245506-0.1285744c-1.0223389-0.1272736-2.0402145-0.344162-3.0385323-0.6467628  c-0.8802109-0.2662392-1.7453232-0.5970917-2.5864105-0.9636574c-1.1376038-0.4941635-2.2287788-1.059761-3.2570457-1.6600952  c2.2212296-1.1419067,4.065258-2.372448,5.4303017-3.4143524c0.7948189-0.6074791,1.4220238-1.1315155,1.8769836-1.5354195  c0.543354-0.4834518,0.8607292-0.799366,0.8607292-0.799366c-0.3457832,0.2272797-0.7214432,0.4415665-1.1076508,0.6493645  c-0.7693329,0.4103966-1.6060371,0.7785873-2.4712334,1.1078148c-2.7809792,1.0597572-5.8076591,1.712368-7.6052589,2.0386734  c-1.0432835-0.7425461-1.9652157-1.4652863-2.7136879-2.0896492c2.5505371-0.5925446,4.9933586-1.4159393,7.3402367-2.4247246  c0.7590256-0.3263054,1.5058746-0.6779327,2.2437134-1.0477448c0.7289925-0.3652687,1.4459686-0.7513161,2.1524773-1.1600876  c2.9397469-1.6958122,5.6983223-3.7344894,8.2399292-6.148819c1.5745468-1.4954834,3.2224655-2.2526436,4.8974991-2.2526436  c2.831955,0,5.3031845,2.0834808,6.6308098,3.4633789c0.2214317,0.230526,0.4206238,0.4461136,0.5747681,0.6227417  c-0.3233833,1.0435257-0.6676292,2.0221138-1.025425,2.9666138c-0.4264717,1.1256714-0.8769684,2.1825104-1.35149,3.1672707  c-0.3621826,0.7483902-0.7365379,1.4610634-1.1256714,2.1286087c-0.0823059,0.1405907-0.1616898,0.2873459-0.2453766,0.4250107  c-0.1676178,0.2753296-0.342865,0.5328026-0.5150261,0.7948189c-0.4115334,0.6211166-0.832077,1.2110634-1.2722664,1.7497101  c-0.0867691,0.1048737-0.1766243,0.199028-0.2648582,0.3022766c-0.6676254,0.7815094-1.3665848,1.4669151-2.0986595,2.0594559  c-0.0147743,0.0120163-0.0313339,0.024353-0.0462685,0.0376625C52.0364761,56.9282341,49.4710045,57.8620186,46.6076393,57.8620186z   M63.9076462,38.7389259c-1.688343-1.753933-4.9035034-4.4182701-8.8625069-4.4182701  c-2.487709,0-4.8451424,1.0415802-7.008091,3.095192c-2.5758591,2.4471245-5.3928795,4.4770317-8.4089279,6.1293373  c-3.1522522-3.5861092-5.0801315-8.2725601-5.0801315-13.4096737c0-1.5178871,0.1795502-2.9935646,0.4969254-4.4185925  c11.7499046-2.140625,17.2730598-7.1277332,19.8654823-11.3485947c2.5924187,4.2208614,8.1155777,9.2079697,19.8653984,11.3485947  c0.3174591,1.4250278,0.4970856,2.9007053,0.4970856,4.4185925c0,3.2435703-0.7828827,6.3014202-2.1375427,9.0254993  c-1.1495285-0.9847603-2.3349457-1.9802322-3.6056671-3.0023308L67.96698,34.90411L63.9076462,38.7389259z M51.9781151,10.0094748  c-1.2108192,3.0744095-4.7477379,8.0842466-15.0577583,10.6122179C39.90345,15.0027523,45.4430046,10.958519,51.9781151,10.0094748z   M72.9003525,20.6216927c-10.3084755-2.5295944-13.8453979-7.5378084-15.0577583-10.6122179  C64.3776245,10.958519,69.9171753,15.0027523,72.9003525,20.6216927z M64.1157684,56.1707535  c-1.0059433-0.7931976-2.0716324-1.3922348-3.1269264-1.856205c1.372509-0.345459,2.7017555-0.7902756,3.9740181-1.3529472  C71.3332748,60.277977,64.1157684,56.1707535,64.1157684,56.1707535z"/><polygon points="54.9103966,30.3316193 43.9194374,25.0506725 42.593277,27.8140373 49.5533104,31.1576099 47.7407761,32.0274315   49.0699425,34.7904701 54.9103966,31.983923 60.7523918,34.7904701 62.0814743,32.0274315 60.26894,31.1576099   67.228981,27.8140373 65.9028931,25.0506725 "/><rect x="8.1434402" y="46.4143448" transform="matrix(0.9432923 -0.3319633 0.3319633 0.9432923 -15.3265553 7.7065501)" width="13.5002279" height="4.5985551"/><rect x="8.1435175" y="25.5939732" transform="matrix(0.9433005 0.33194 -0.33194 0.9433005 10.1032953 -3.3622622)" width="13.5001965" height="4.598249"/><rect x="6" y="36" width="13" height="4"/><text x="0" y="115" fill="#000000" font-size="5px" font-weight="bold" font-family="'Helvetica Neue', Helvetica, Arial-Unicode, Arial, Sans-serif">Created by Alex Tai</text><text x="0" y="120" fill="#000000" font-size="5px" font-weight="bold" font-family="'Helvetica Neue', Helvetica, Arial-Unicode, Arial, Sans-serif">from the Noun Project</text></svg>
