<?xml version="1.0" encoding="iso-8859-1"?>
<!-- Generator: Adobe Illustrator 18.0.0, SVG Export Plug-In . SVG Version: 6.00 Build 0)  -->
<!DOCTYPE svg PUBLIC "-//W3C//DTD SVG 1.1//EN" "http://www.w3.org/Graphics/SVG/1.1/DTD/svg11.dtd">
<svg version="1.1" id="Capa_1" xmlns="http://www.w3.org/2000/svg" xmlns:xlink="http://www.w3.org/1999/xlink" x="0px" y="0px"
	 viewBox="0 0 423.583 423.583" style="enable-background:new 0 0 423.583 423.583;" xml:space="preserve">
<g id="XMLID_795_">
	<path id="XMLID_827_" d="M400.791,308.127h-49.799l-58.432-48.037l-50.697-74.054c-4.935-6.711-10.659-10.175-18.15-13.058
		l-131.72-39.495L27.988,80.566c-7.279-6.018-18.054-4.992-24.067,2.282c-6.016,7.276-4.994,18.052,2.282,24.067l66.849,55.268
		c1.874,1.549,4.056,2.681,6.401,3.319l49.465,13.47L83.944,317.393l0.051,0.005c-4.9,19.094,7.653,36.313,26.433,36.313h290.363
		c12.588,0,22.792-10.204,22.792-22.792C423.583,318.331,413.379,308.127,400.791,308.127z M265.723,281.407
		c0.91,1.33,2.005,2.525,3.25,3.549l28.184,23.171h-99.982l26.153-88.646L265.723,281.407z"/>
	<circle id="XMLID_828_" cx="204.66" cy="109.44" r="39.557"/>
</g>
<g>
</g>
<g>
</g>
<g>
</g>
<g>
</g>
<g>
</g>
<g>
</g>
<g>
</g>
<g>
</g>
<g>
</g>
<g>
</g>
<g>
</g>
<g>
</g>
<g>
</g>
<g>
</g>
<g>
</g>
</svg>
