<?xml version="1.0" encoding="iso-8859-1"?>
<!-- Generator: Adobe Illustrator 18.0.0, SVG Export Plug-In . SVG Version: 6.00 Build 0)  -->
<!DOCTYPE svg PUBLIC "-//W3C//DTD SVG 1.1//EN" "http://www.w3.org/Graphics/SVG/1.1/DTD/svg11.dtd">
<svg version="1.1" id="Capa_1" xmlns="http://www.w3.org/2000/svg" xmlns:xlink="http://www.w3.org/1999/xlink" x="0px" y="0px"
	 viewBox="0 0 460 460" style="enable-background:new 0 0 460 460;" xml:space="preserve">
<g id="XMLID_160_">
	<circle id="XMLID_162_" cx="179.138" cy="43.475" r="43.472"/>
	<path id="XMLID_161_" d="M361.011,174.067l-150.783-37.483c1.298-14.298-9.235-26.947-23.535-28.255l-58.836-5.382
		c-14.306-1.308-26.964,9.228-28.272,23.534c-0.83,9.071-14.934,163.266-15.704,171.678l0.173,0.016
		c0.324,12.109,9.284,22.607,21.679,24.451l114.09,16.979l-73.984,77.38c-9.708,10.153-9.347,26.256,0.807,35.964
		c10.155,9.71,26.258,9.346,35.964-0.807l107.934-112.887c6.569-6.87,8.759-16.83,5.679-25.822
		c-3.081-8.992-10.918-15.517-20.32-16.915l-79.224-11.79l9.881-108.028l144.848,36.007c10.671,2.651,21.469-3.849,24.121-14.517
		C378.18,187.52,371.68,176.72,361.011,174.067z"/>
</g>
<g>
</g>
<g>
</g>
<g>
</g>
<g>
</g>
<g>
</g>
<g>
</g>
<g>
</g>
<g>
</g>
<g>
</g>
<g>
</g>
<g>
</g>
<g>
</g>
<g>
</g>
<g>
</g>
<g>
</g>
</svg>
