<?xml version="1.0" encoding="iso-8859-1"?>
<!-- Generator: Adobe Illustrator 18.0.0, SVG Export Plug-In . SVG Version: 6.00 Build 0)  -->
<!DOCTYPE svg PUBLIC "-//W3C//DTD SVG 1.1//EN" "http://www.w3.org/Graphics/SVG/1.1/DTD/svg11.dtd">
<svg version="1.1" id="Capa_1" xmlns="http://www.w3.org/2000/svg" xmlns:xlink="http://www.w3.org/1999/xlink" x="0px" y="0px"
	 viewBox="0 0 459.978 459.978" style="enable-background:new 0 0 459.978 459.978;" xml:space="preserve">
<g id="XMLID_211_">
	<path id="XMLID_213_" d="M350.046,151.309l-126.953-0.787c-5.324-0.033-14.587,2.794-19.708,6.585l-96.986,68.961l-93.17,40.444
		c-11.131,4.832-16.238,17.772-11.406,28.904c3.595,8.282,11.678,13.228,20.166,13.228c2.92,0,5.889-0.585,8.738-1.822l95.279-41.36
		c1.403-0.609,2.737-1.363,3.983-2.249l54.869-39.015l104.04,12.008c0.518-3.883,2.041-8.89,4.473-11.961l39.777-50.246
		l-27.979,59.586c-2.16,4.6-2.01,10.18,0.787,14.792c3.636,5.994,29.246,48.21,32.48,53.541c4.531,7.464,14.212,9.709,21.527,5.274
		c0.001-0.001,0.003-0.001,0.004-0.002c7.287-4.419,9.821-14.031,5.272-21.53c-5.219-8.603-22.57-37.205-28.121-46.356l25.337-53.96
		l-9.494,51.065l3.315,5.465c2.26-0.827,4.38-2.051,6.221-3.681c4.138-3.665,6.522-8.917,6.556-14.444l0.328-52.865
		C369.447,160.14,360.79,151.376,350.046,151.309z"/>
	<circle id="XMLID_212_" cx="423.192" cy="189.333" r="36.786"/>
</g>
<g>
</g>
<g>
</g>
<g>
</g>
<g>
</g>
<g>
</g>
<g>
</g>
<g>
</g>
<g>
</g>
<g>
</g>
<g>
</g>
<g>
</g>
<g>
</g>
<g>
</g>
<g>
</g>
<g>
</g>
</svg>
