<?xml version="1.0" encoding="iso-8859-1"?>
<!-- Generator: Adobe Illustrator 18.0.0, SVG Export Plug-In . SVG Version: 6.00 Build 0)  -->
<!DOCTYPE svg PUBLIC "-//W3C//DTD SVG 1.1//EN" "http://www.w3.org/Graphics/SVG/1.1/DTD/svg11.dtd">
<svg version="1.1" id="Capa_1" xmlns="http://www.w3.org/2000/svg" xmlns:xlink="http://www.w3.org/1999/xlink" x="0px" y="0px"
	 viewBox="0 0 460 460" style="enable-background:new 0 0 460 460;" xml:space="preserve">
<g id="XMLID_150_">
	<path id="XMLID_152_" d="M324.749,214.915l-160.435,5.936l-23.247-62.04c-3.057-8.158-10.267-14.039-18.873-15.395
		c-8.602-1.352-17.274,2.025-22.691,8.847L5.241,270.999c-8.3,10.455-6.553,25.658,3.902,33.958
		c10.454,8.3,25.659,6.553,33.958-3.901l67.694-85.27l29.663,79.163c3.659,9.766,13.053,15.951,23.296,15.667
		c5.034,1.115,6.699,0.844,25.799,0.726l-22.588-9.906c-18.994-8.328-27.492-30.451-19.236-49.277
		c8.276-18.873,30.32-27.545,49.277-19.234l54.052,23.702l60.11-19.642l-61.064,39.228l-60.455-26.51
		c-9.702-4.259-20.947,0.247-25.141,9.813c-4.242,9.673,0.182,20.922,9.813,25.141l69.825,30.62
		c5.894,2.584,12.648,1.983,17.951-1.404c0.009-0.006,0.019-0.011,0.028-0.017l0.001-0.001l67.432-43.319l-38.894,40.178
		l35.463-0.22c13.086-0.081,23.636-10.772,23.54-23.861l-0.355-48.224C349.213,225.069,338.099,214.421,324.749,214.915z"/>
	<circle id="XMLID_151_" cx="415.212" cy="264.201" r="44.788"/>
</g>
<g>
</g>
<g>
</g>
<g>
</g>
<g>
</g>
<g>
</g>
<g>
</g>
<g>
</g>
<g>
</g>
<g>
</g>
<g>
</g>
<g>
</g>
<g>
</g>
<g>
</g>
<g>
</g>
<g>
</g>
</svg>
