<?xml version="1.0" encoding="iso-8859-1"?>
<!-- Generator: Adobe Illustrator 18.0.0, SVG Export Plug-In . SVG Version: 6.00 Build 0)  -->
<!DOCTYPE svg PUBLIC "-//W3C//DTD SVG 1.1//EN" "http://www.w3.org/Graphics/SVG/1.1/DTD/svg11.dtd">
<svg version="1.1" id="Capa_1" xmlns="http://www.w3.org/2000/svg" xmlns:xlink="http://www.w3.org/1999/xlink" x="0px" y="0px"
	 viewBox="0 0 460 460" style="enable-background:new 0 0 460 460;" xml:space="preserve">
<g id="XMLID_194_">
	<path id="XMLID_196_" d="M339.13,302.33c2.339-7.019,1.464-14.713-2.39-21.028c-3.855-6.315-10.297-10.61-17.609-11.738
		l-51.706-7.978l41.798-122.029c4.597-13.42-2.556-28.027-15.977-32.623L238.05,88.026c-9.489-3.25-19.565-0.621-26.282,5.938
		l-61.568,1.822c-14.177,0.419-25.889,11.247-27.372,25.352c-2.819,26.812-5.326,54.759-6.807,74.308
		c-0.665,8.78,1.698,17.829,9.619,22.706c4.582,2.821,9.811,3.674,14.728,2.832l-3.261-28.513
		c-2.15-18.802,9.111-34.451,18.463-39.198l5.993-3.042l0.88-8.051l17.799-1.432c17.39-8.829,3.753-1.906,52.855-26.833
		l-68.286,57.562c-5.423,4.572-8.235,11.572-7.422,18.676c1.123,9.816,8.736,76.384,9.654,84.41
		c1.323,11.576,11.805,20.046,23.532,18.712c0.004-0.001,0.008-0.001,0.012-0.001c11.615-1.327,20.052-11.822,18.711-23.543
		l-8.358-73.082l0-0.001l61.837-52.125l-40.67,57.546l7.473,65.342c2.547,22.269-12.918,42.354-34.724,45.873l28.035,18.25
		l-61.366,89.093c-7.869,11.425-4.987,27.067,6.438,34.936c11.429,7.874,27.072,4.98,34.935-6.438l66.571-96.649l-24.81,74.46
		c-4.385,13.161,2.729,27.387,15.891,31.771c13.163,4.385,27.387-2.73,31.771-15.89L339.13,302.33z"/>
	<circle id="XMLID_195_" cx="301.145" cy="42.941" r="42.93"/>
</g>
<g>
</g>
<g>
</g>
<g>
</g>
<g>
</g>
<g>
</g>
<g>
</g>
<g>
</g>
<g>
</g>
<g>
</g>
<g>
</g>
<g>
</g>
<g>
</g>
<g>
</g>
<g>
</g>
<g>
</g>
</svg>
