<?xml version="1.0" encoding="iso-8859-1"?>
<!-- Generator: Adobe Illustrator 16.0.0, SVG Export Plug-In . SVG Version: 6.00 Build 0)  -->
<!DOCTYPE svg PUBLIC "-//W3C//DTD SVG 1.1//EN" "http://www.w3.org/Graphics/SVG/1.1/DTD/svg11.dtd">
<svg version="1.1" id="Capa_1" xmlns="http://www.w3.org/2000/svg" xmlns:xlink="http://www.w3.org/1999/xlink" x="0px" y="0px"
	 width="470.838px" height="470.838px" viewBox="0 0 470.838 470.838" style="enable-background:new 0 0 470.838 470.838;"
	 xml:space="preserve">
<g>
	<g id="_x34_3_23_">
		<g>
			<path d="M270.639,87.256c20.607,0,37.308,16.702,37.308,37.308c0,20.604-16.699,37.309-37.308,37.309
				c-20.604,0-37.31-16.705-37.31-37.309C233.329,103.958,250.033,87.256,270.639,87.256z"/>
			<path d="M390.631,98.336c-6.186-6.17-16.183-6.17-22.327,0l-75.71,75.699c-6.017-3.929-13.188-6.233-20.908-6.233
				c-9.531,0-18.229,3.497-24.934,9.247l-78.714-78.713c-6.163-6.17-16.166-6.17-22.334,0c-6.159,6.165-6.159,16.171,0,22.329
				l87.625,88.498l0.012,236.479c0,8.725,7.07,15.805,15.794,15.805c8.723,0,15.791-7.066,15.791-15.805V334.131
				c2.198,0.41,4.448,0.637,6.768,0.637c2.32,0,4.564-0.227,6.781-0.637v111.512c0,8.73,7.061,15.805,15.792,15.805
				c8.713,0,15.792-7.061,15.792-15.805l0.073-243.256l80.499-81.721C396.803,114.507,396.803,104.501,390.631,98.336z"/>
			<g>
				<path d="M223.13,235.623h-31.074h-1.7c-4.533,0-8.357,1.558-11.474,4.674c-3.116,3.117-4.675,8.643-4.675,13.174v6.656h-67.146
					c-9.389,0-16.999,7.608-16.999,16.998v0.994v7.649c0,1.762,0.268,3.458,0.764,5.055c2.152,6.921,8.607,11.945,16.235,11.945
					h2.55h49.325h15.412h48.787L223.13,235.623z"/>
				<path d="M462.764,243.696c-4.818-4.25-10.912-6.94-18.274-8.074H320.32l-0.021,67.146h149.689v-42.498
					C469.989,253.471,467.579,247.947,462.764,243.696z"/>
			</g>
			<g>
				<path d="M223.135,321.467H70.514V178.676c0-4.534-1.7-8.644-5.1-12.325s-7.507-5.524-12.324-5.524s-8.924,1.843-12.324,5.524
					c-3.399,3.684-5.1,7.793-5.1,12.325v226.935h34.848v-49.296h152.623L223.135,321.467z"/>
				<polygon points="320.295,321.467 320.285,356.314 435.99,356.314 435.99,405.611 470.838,405.611 470.838,321.467 				"/>
			</g>
			<g>
				<path d="M62.455,9.391C27.963,9.391,0,37.36,0,71.854c0,34.473,27.962,62.436,62.455,62.436
					c34.484,0,62.438-27.963,62.438-62.436C124.893,37.359,96.939,9.391,62.455,9.391z M62.455,115.319
					c-23.981,0-43.495-19.502-43.495-43.471c0-23.997,19.514-43.51,43.495-43.51s43.479,19.518,43.479,43.51
					C105.93,95.817,86.432,115.319,62.455,115.319z"/>
				<path d="M67.821,68.405l0.004-24.111c0-2.964-2.399-5.355-5.37-5.355c-2.983,0-5.386,2.392-5.386,5.355v24.111v10.744v0.009
					h10.752v-0.009l24.115,0.009c2.957,0,5.368-2.398,5.368-5.375c0-2.979-2.411-5.378-5.368-5.378H67.821z"/>
			</g>
		</g>
	</g>
</g>
<g>
</g>
<g>
</g>
<g>
</g>
<g>
</g>
<g>
</g>
<g>
</g>
<g>
</g>
<g>
</g>
<g>
</g>
<g>
</g>
<g>
</g>
<g>
</g>
<g>
</g>
<g>
</g>
<g>
</g>
</svg>
