<?xml version="1.0" encoding="UTF-8" standalone="no"?>
<svg
   xmlns:dc="http://purl.org/dc/elements/1.1/"
   xmlns:cc="http://creativecommons.org/ns#"
   xmlns:rdf="http://www.w3.org/1999/02/22-rdf-syntax-ns#"
   xmlns:svg="http://www.w3.org/2000/svg"
   xmlns="http://www.w3.org/2000/svg"
   xmlns:sodipodi="http://sodipodi.sourceforge.net/DTD/sodipodi-0.dtd"
   xmlns:inkscape="http://www.inkscape.org/namespaces/inkscape"
   viewBox="0 0 24 12.5"
   version="1.1"
   x="0px"
   y="0px"
   id="svg2"
   inkscape:version="0.91 r13725"
   sodipodi:docname="absent_vacation_plot.svg">
  <metadata
     id="metadata22">
    <rdf:RDF>
      <cc:Work
         rdf:about="">
        <dc:format>image/svg+xml</dc:format>
        <dc:type
           rdf:resource="http://purl.org/dc/dcmitype/StillImage" />
      </cc:Work>
    </rdf:RDF>
  </metadata>
  <defs
     id="defs20" />
  <sodipodi:namedview
     pagecolor="#ffffff"
     bordercolor="#666666"
     borderopacity="1"
     objecttolerance="10"
     gridtolerance="10"
     guidetolerance="10"
     inkscape:pageopacity="0"
     inkscape:pageshadow="2"
     inkscape:window-width="1420"
     inkscape:window-height="912"
     id="namedview18"
     showgrid="false"
     inkscape:zoom="12.916667"
     inkscape:cx="-0.58064516"
     inkscape:cy="6.25"
     inkscape:window-x="0"
     inkscape:window-y="0"
     inkscape:window-maximized="0"
     inkscape:current-layer="g10" />
  <title
     id="title4">46 - Sunglasses (Solid)</title>
  <desc
     id="desc6">Created with Sketch.</desc>
  <g
     stroke="none"
     stroke-width="1"
     fill="none"
     fill-rule="evenodd"
     id="g8">
    <g
       fill="#000000"
       id="g10">
      <path
         d="M10.9921,3.6251 C10.9691,3.1561 10.8911,2.5731 10.6961,2.0101 L13.3031,2.0101 C13.1051,2.5811 13.0281,3.1661 13.0061,3.6251 C12.6321,3.5741 12.2751,3.5601 12.0001,3.5601 C11.7251,3.5601 11.3661,3.5741 10.9921,3.6251 M24.0001,3.0101 C24.0001,2.4571 23.5531,2.0101 23.0001,2.0101 L22.8281,2.0101 C22.6111,1.3481 22.1901,0.8131 21.5711,0.5001 C20.9281,0.1751 20.2031,0.0101 19.4181,0.0101 L17.0001,0.0101 L15.9141,0.0101 L8.0861,0.0101 L7.0001,0.0101 L4.5991,0.0101 C3.8141,0.0101 3.0901,0.1751 2.4451,0.5001 C1.8141,0.8191 1.4011,1.3111 1.1831,1.9251 L1.0001,1.9251 C0.4471,1.9251 0.0001,2.3721 0.0001,2.9251 C0.0001,3.4771 0.4471,3.9251 1.0001,3.9251 L1.0011,3.9251 L1.0031,6.2991 C0.9341,7.2361 1.3831,9.1811 3.5701,9.8351 C3.9621,9.9521 4.3701,10.0101 4.7861,10.0101 C5.2861,10.0101 5.7971,9.9261 6.3021,9.7571 C8.2211,9.1131 10.2471,7.7231 10.8161,5.6961 C11.3591,5.5191 12.6751,5.5221 13.2001,5.7031 C13.7991,7.7491 15.8091,9.1171 17.7171,9.7571 C18.2211,9.9261 18.7301,10.0101 19.2311,10.0101 C19.6461,10.0101 20.0561,9.9521 20.4471,9.8351 C22.6401,9.1791 23.0741,7.2291 23.0001,6.3721 L23.0001,4.0101 C23.5531,4.0101 24.0001,3.5621 24.0001,3.0101"
         id="path12"
         style="fill:#ffffff;fill-opacity:1;stroke:#000000;stroke-opacity:1;stroke-width:1.5;stroke-miterlimit:4;stroke-dasharray:none" />
    </g>
  </g>
</svg>
