<?xml version="1.0" encoding="UTF-8" standalone="no"?>
<!-- Generator: Adobe Illustrator 18.0.0, SVG Export Plug-In . SVG Version: 6.00 Build 0)  -->

<svg
   xmlns:dc="http://purl.org/dc/elements/1.1/"
   xmlns:cc="http://creativecommons.org/ns#"
   xmlns:rdf="http://www.w3.org/1999/02/22-rdf-syntax-ns#"
   xmlns:svg="http://www.w3.org/2000/svg"
   xmlns="http://www.w3.org/2000/svg"
   xmlns:sodipodi="http://sodipodi.sourceforge.net/DTD/sodipodi-0.dtd"
   xmlns:inkscape="http://www.inkscape.org/namespaces/inkscape"
   version="1.1"
   id="Capa_1"
   x="0px"
   y="0px"
   viewBox="0 0 423.583 423.583"
   style="enable-background:new 0 0 423.583 423.583;"
   xml:space="preserve"
   inkscape:version="0.91 r13725"
   sodipodi:docname="evening2_.svg"
   inkscape:export-filename="/Users/andrejsorokin/Projects/docker-iot-calendar/src/static/img/evening2_.png"
   inkscape:export-xdpi="13.261236"
   inkscape:export-ydpi="13.261236"><metadata
     id="metadata4473"><rdf:RDF><cc:Work
         rdf:about=""><dc:format>image/svg+xml</dc:format><dc:type
           rdf:resource="http://purl.org/dc/dcmitype/StillImage" /><dc:title></dc:title></cc:Work></rdf:RDF></metadata><defs
     id="defs4471" /><sodipodi:namedview
     pagecolor="#ffffff"
     bordercolor="#666666"
     borderopacity="1"
     objecttolerance="10"
     gridtolerance="10"
     guidetolerance="10"
     inkscape:pageopacity="0"
     inkscape:pageshadow="2"
     inkscape:window-width="988"
     inkscape:window-height="754"
     id="namedview4469"
     showgrid="false"
     inkscape:zoom="0.55715172"
     inkscape:cx="-79.870525"
     inkscape:cy="211.7915"
     inkscape:window-x="786"
     inkscape:window-y="240"
     inkscape:window-maximized="0"
     inkscape:current-layer="Capa_1" /><g
     id="XMLID_795_"><path
       id="XMLID_827_"
       d="M400.791,308.127h-49.799l-58.432-48.037l-50.697-74.054c-4.935-6.711-10.659-10.175-18.15-13.058   l-131.72-39.495L27.988,80.566c-7.279-6.018-18.054-4.992-24.067,2.282c-6.016,7.276-4.994,18.052,2.282,24.067l66.849,55.268   c1.874,1.549,4.056,2.681,6.401,3.319l49.465,13.47L83.944,317.393l0.051,0.005c-4.9,19.094,7.653,36.313,26.433,36.313h290.363   c12.588,0,22.792-10.204,22.792-22.792C423.583,318.331,413.379,308.127,400.791,308.127z M265.723,281.407   c0.91,1.33,2.005,2.525,3.25,3.549l28.184,23.171h-99.982l26.153-88.646L265.723,281.407z"
       style="fill:#000000;fill-opacity:1;stroke:#ffffff;stroke-opacity:1;stroke-width:8;stroke-miterlimit:4;stroke-dasharray:none" /><circle
       id="XMLID_828_"
       cx="204.66"
       cy="109.44"
       r="39.557"
       style="fill:#000000;fill-opacity:1;stroke:#ffffff;stroke-opacity:1;stroke-width:8;stroke-miterlimit:4;stroke-dasharray:none" /></g><g
     id="g4439" /><g
     id="g4441" /><g
     id="g4443" /><g
     id="g4445" /><g
     id="g4447" /><g
     id="g4449" /><g
     id="g4451" /><g
     id="g4453" /><g
     id="g4455" /><g
     id="g4457" /><g
     id="g4459" /><g
     id="g4461" /><g
     id="g4463" /><g
     id="g4465" /><g
     id="g4467" /></svg>