<?xml version="1.0" encoding="UTF-8" standalone="no"?>
<!-- Generator: Adobe Illustrator 18.0.0, SVG Export Plug-In . SVG Version: 6.00 Build 0)  -->

<svg
   xmlns:dc="http://purl.org/dc/elements/1.1/"
   xmlns:cc="http://creativecommons.org/ns#"
   xmlns:rdf="http://www.w3.org/1999/02/22-rdf-syntax-ns#"
   xmlns:svg="http://www.w3.org/2000/svg"
   xmlns="http://www.w3.org/2000/svg"
   xmlns:sodipodi="http://sodipodi.sourceforge.net/DTD/sodipodi-0.dtd"
   xmlns:inkscape="http://www.inkscape.org/namespaces/inkscape"
   version="1.1"
   id="Capa_1"
   x="0px"
   y="0px"
   viewBox="0 0 460 460"
   style="enable-background:new 0 0 460 460;"
   xml:space="preserve"
   inkscape:version="0.91 r13725"
   sodipodi:docname="morning_.svg"
   inkscape:export-filename="/Users/andrejsorokin/Projects/docker-iot-calendar/src/static/img/morning.png"
   inkscape:export-xdpi="13.2612"
   inkscape:export-ydpi="13.2612"><metadata
     id="metadata40"><rdf:RDF><cc:Work
         rdf:about=""><dc:format>image/svg+xml</dc:format><dc:type
           rdf:resource="http://purl.org/dc/dcmitype/StillImage" /><dc:title /></cc:Work></rdf:RDF></metadata><defs
     id="defs38" /><sodipodi:namedview
     pagecolor="#ffffff"
     bordercolor="#666666"
     borderopacity="1"
     objecttolerance="10"
     gridtolerance="10"
     guidetolerance="10"
     inkscape:pageopacity="0"
     inkscape:pageshadow="2"
     inkscape:window-width="967"
     inkscape:window-height="724"
     id="namedview36"
     showgrid="false"
     inkscape:zoom="0.51304348"
     inkscape:cx="-86.737287"
     inkscape:cy="230"
     inkscape:window-x="801"
     inkscape:window-y="249"
     inkscape:window-maximized="0"
     inkscape:current-layer="Capa_1" /><g
     id="XMLID_160_"
     style="fill:#ffffff;fill-opacity:1;stroke:#000000;stroke-opacity:1;stroke-width:15;stroke-miterlimit:4;stroke-dasharray:none"><circle
       id="XMLID_162_"
       cx="179.138"
       cy="43.475"
       r="43.472"
       style="stroke:#000000;stroke-opacity:1;stroke-width:15;stroke-miterlimit:4;stroke-dasharray:none;fill:#ffffff;fill-opacity:1" /><path
       id="XMLID_161_"
       d="M361.011,174.067l-150.783-37.483c1.298-14.298-9.235-26.947-23.535-28.255l-58.836-5.382   c-14.306-1.308-26.964,9.228-28.272,23.534c-0.83,9.071-14.934,163.266-15.704,171.678l0.173,0.016   c0.324,12.109,9.284,22.607,21.679,24.451l114.09,16.979l-73.984,77.38c-9.708,10.153-9.347,26.256,0.807,35.964   c10.155,9.71,26.258,9.346,35.964-0.807l107.934-112.887c6.569-6.87,8.759-16.83,5.679-25.822   c-3.081-8.992-10.918-15.517-20.32-16.915l-79.224-11.79l9.881-108.028l144.848,36.007c10.671,2.651,21.469-3.849,24.121-14.517   C378.18,187.52,371.68,176.72,361.011,174.067z"
       style="stroke:#000000;stroke-opacity:1;stroke-width:15;stroke-miterlimit:4;stroke-dasharray:none;fill:#ffffff;fill-opacity:1" /></g><g
     id="g6" /><g
     id="g8" /><g
     id="g10" /><g
     id="g12" /><g
     id="g14" /><g
     id="g16" /><g
     id="g18" /><g
     id="g20" /><g
     id="g22" /><g
     id="g24" /><g
     id="g26" /><g
     id="g28" /><g
     id="g30" /><g
     id="g32" /><g
     id="g34" /></svg>